# xmcd CD database file
#
# Track frame offsets:
#	150
#	35297
#	75110
#	107980
#	135555
#	162580
#	187362
#	210385
#	249497
#	271175
#	294510
#	312740
#
# Disc length: 4506 seconds
#
# Revision: 12
# Processed by: cddbd v1.5.2PL0 Copyright (c) Steve Scherf et al.
# Submitted via: CDex 1.70beta2
#
DISCID=ab11980c
DTITLE=globe - outernet
DYEAR=2001
DGENRE=JPop
TTITLE0=outernet
TTITLE1=garden
TTITLE2=angel's song
TTITLE3=Throwin'down in the double 0
TTITLE4=like a prayer
TTITLE5=とにかく無性に…
TTITLE6=THE MAIN LORD
TTITLE7=DON'T LOOK BACK
TTITLE8=楽園の嘘
TTITLE9=another sad song
TTITLE10=soft parade
TTITLE11=on the way to YOU
EXTD=YEAR: 2001
EXTT0=
EXTT1=
EXTT2=
EXTT3=
EXTT4=
EXTT5=
EXTT6=
EXTT7=
EXTT8=
EXTT9=
EXTT10=
EXTT11=
PLAYORDER=
